<svg xmlns="http://www.w3.org/2000/svg" viewBox="0 0 260 80">
<!-- SVG created with Arrow, by QuiverAI (https://quiver.ai) -->
  <style type="text/css">.cls-0 {fill:#F4F4F4;}
.cls-1 {fill:#666666;}
.cls-2 {fill:#999999;}
.cls-3 {fill:#B5B5B5;}
.cls-4 {fill:url(#SVGID_1_);}
.cls-5 {fill:url(#SVGID_2_);}
.cls-6 {fill:url(#SVGID_3_);}
.cls-7 {fill:url(#SVGID_4_);}
.cls-8 {fill:url(#SVGID_5_);}
.cls-9 {fill:url(#SVGID_6_);}
.cls-10 {fill:url(#SVGID_7_);}
.cls-11 {fill:url(#SVGID_8_);}
.cls-12 {fill:url(#SVGID_9_);}
.cls-13 {font-family:'Arial';}
.cls-14 {font-size:2px;}</style>
  <path class="cls-1" d="m17 15.6v-3.6c0-0.3-0.2-0.6-0.5-0.6h-12.8c-0.3 0-0.6 0.3-0.6 0.6v14.6c0 0.2 0.2 0.4 0.5 0.4h3.4v1.7h-3.3c-1 0-1.9-1-1.9-2.1v-14.6c0-1.2 0.9-2.2 1.9-2.2h11.8c1.1 0 2 1 2 2.2v3.6h-0.5z"/>
  <path class="cls-1" d="m9.2 16.5h13.5c1.2 0 2 0.9 2 2.1v15.4c0 1.2-0.9 2-2 2h-13.1c-1.1 0-2-0.8-2-1.9v-15.5c0-1.2 0.7-2.1 1.6-2.1z"/>
  <path class="cls-2" d="m9.3 18.1h13.6l0.6 0.5v15.5l-0.5 0.5h-13.7l-0.4-0.5v-15.5z"/>
  <path class="cls-3" d="m9.9 19.2h12.5l0.3 0.3v13.9l-0.3 0.3h-12.5l-0.2-0.3v-13.9z"/>
  <linearGradient id="SVGID_1_" x1="18.66" x2="13.46" y1="33.92" y2="18.61" gradientUnits="userSpaceOnUse">
    <stop stop-color="#999" offset="0"/>
    <stop stop-color="#B3B3B3" offset="1"/>
  </linearGradient>
  <path class="cls-4" d="m10.5 19.8h11.2l0.4 0.4v12.6l-0.4 0.4h-11.2l-0.3-0.4v-12.6z"/>
  <path class="cls-1" d="m53.1 13.4-1.4 0.1v1.4h1v19.5h-14.9v-19.5h1.2v-1.4h-1.5l-1.4 1v20.1l1.1 1.5h16.1l1.5-1.1v-20.2z"/>
  <path class="cls-3" d="m40.1 11.6h3.4c0.6-3.2 3.9-3.2 4.7-0.1h2.8v4.3h-10.9v-4.2z"/>
  <path class="cls-2" d="m40.9 12.4h3.1c0.5-2.8 3.3-2.8 3.9-0.1h2.4v3.4h-9.4v-3.3z"/>
  <path class="cls-1" d="m45.6 10.6c1.4 0 2.1 2.9 0 3-1.9-0.1-1.4-3 0-3z"/>
  <path class="cls-3" d="m45.6 11.1c1 0 1.5 2 0 2.1-1.3-0.1-0.9-2.1 0-2.1z"/>
  <path class="cls-3" d="m38.7 15.7h13.1v0.8l-1 0.6h-10.4l-1.7-0.6z"/>
  <path class="cls-2" d="m41.1 20.3h9.3v1.1h-9.3z"/>
  <path class="cls-2" d="m40.9 23.6h9.6v1h-9.6z"/>
  <path class="cls-2" d="m41 26.5h9.5v1.1h-9.5z"/>
  <path class="cls-2" d="m41.1 29.5h5v1.1h-5z"/>
  <path class="cls-1" d="m74.3 10.2h14.4c1.2 0 2.1 1 2.1 2.1v13.3c0 1.7-0.8 2.5-2.1 2.5h-4.5v2.5l-1 0.9-5.2 0.3 0.5 1.2-0.7 2.1-8.3 2-1.2-0.8-2.4-9.9 0.7-1.1 2.9-0.7v-5.8l0.9-1.2 2-0.2v-5.1c0-1.1 0.7-2.1 1.9-2.1z"/>
  <path class="cls-3" d="m73.8 11.7h15.1l0.5 0.6v14l-0.5 0.4h-5.4v3l-10.2 0.3-3-3.7-0.1-7.7 2.4-0.1v-6.2z"/>
  <path class="cls-0" d="m74.2 12.3h14.5l0.3 0.4v13.3l-0.3 0.4h-14.5l-0.2-0.4v-13.3z"/>
  <path class="cls-3" d="m71.1 19.5h1.6v7.7l1.5 1.4 7.8-0.2 0.5 1.3-8.7 0.3-2.5-2.4z"/>
  <path class="cls-2" d="m67.5 26 1.4-0.2 1.7 4.9 5.1 0.6 1.3 2.5-1 0.4-6.1 1.5-0.7-0.5z"/>
  <path class="cls-3" d="m69.4 32.8 0.9-0.2 0.8 2.3-0.8 0.3z"/>
  <path class="cls-3" d="m71.6 32.4 0.6-0.1 0.7 2.1-0.7 0.2z"/>
  <path class="cls-3" d="m73.3 32 0.9-0.2 0.7 1.7-0.9 0.3z"/>
  <linearGradient id="SVGID_2_" x1="73.68" x2="84.81" y1="25.61" y2="13.08" gradientUnits="userSpaceOnUse">
    <stop stop-color="#F2F2F2" offset="0"/>
    <stop stop-color="#F5F5F5" offset="1"/>
  </linearGradient>
  <path class="cls-5" d="m74.9 13.1h12.6l0.8 0.8v11l-0.8 0.7h-12.6l-0.5-0.5v-11.5z"/>
  <path class="cls-1" d="m106.2 20.8-0.3-1.9c0.5-2.5 2-3.6 4.9-2.1l1.1 0.3 1.9-6.2c1.3-3.2 6.1-1.9 5.1 2.1l-2 5.5 3.7 1.5c1.7 0.8 0.7 3.9 0 5.5l-0.8 0.3-1.5 9.8-1.5 1.2-3.2-0.8 0.1-1.1-0.6 1-7.4-3v-0.6l-4-0.5v-1.9c2.1-2.5 3-5.7 4.5-9.1z"/>
  <path class="cls-3" d="m106.9 21.4 12.1 4.8-1.9 9.2-0.9 0.6-1.8-0.3 1.7-6.5-0.6-0.8-0.7 0.3-1.9 6.4-1.9-0.5 1.5-6.5-0.3-1.2-0.8 0.6-1.8 6.5-3.2-1.2 1.7-5.9-0.5-0.9-0.7 0.7-1.9 5.4-2.8-1.2c2.2-2.3 3.4-6 4.7-9.5z"/>
  <path class="cls-3" d="m107 19.4 12.6 5.2 0.8-2.5-0.3-1-3.3-1.7-0.4-1.1 1.8-5.8c0.2-2-2.8-2.8-3.5-0.4l-1.7 5.9-3.6-1.3c-1.5-0.2-2.3 0.7-2.4 2.7z"/>
  <linearGradient id="SVGID_3_" x1="108" x2="119.5" y1="18.04" y2="22.73" gradientUnits="userSpaceOnUse">
    <stop stop-color="#B3B3B3" offset="0"/>
    <stop stop-color="#ADADAD" offset="1"/>
  </linearGradient>
  <path class="cls-6" d="m107.9 18.9 11 4.5 0.6-1.7-3.1-1.7-0.9-1.5 1.8-6c-0.2-1.4-1.8-1.4-1.8-0.4l-1.9 6.8-4.4-1.5c-0.9-0.3-1.4 0-1.3 1.5z"/>
  <linearGradient id="SVGID_4_" x1="108.7" x2="113.7" y1="23.49" y2="32.9" gradientUnits="userSpaceOnUse">
    <stop stop-color="#B3B3B3" offset="0"/>
    <stop stop-color="#999" offset="1"/>
  </linearGradient>
  <path class="cls-7" d="m107.4 22.6 10.5 4.1-2 8.2-0.7-0.3 1.4-5.4-0.9-1.6-1.2 0.4-2 6-0.6-0.3 1.5-5.3-0.7-2-1.3 0.5-2 6-0.9-0.1 1.4-5.2-0.5-1.8-1.3-0.2-2.4 5.6-0.6-0.3 1.8-4.5-0.2-0.9-1 0.3-2.3 4.2-0.4-0.3c1.3-1.6 2.5-4.1 3.2-6.6z"/>
  <path class="cls-1" d="m135.8 14.1v2h19.2l0.5-0.5-0.2-1.7h-4.4v-1.8l-2-2.2h-7.2l-2.1 1.5 0.1 2.5-3.9 0.2zm6.2-2.2h6.1l0.6 0.6v1.4h-6.7v-2z"/>
  <path class="cls-3" d="m136.7 14.6h17.7v1h-17.7z"/>
  <path class="cls-1" d="m136.7 17.1h17v16.9l-0.9 2.1-14.4 0.2-1.5-0.7-0.2-1.2z"/>
  <path class="cls-2" d="m137.7 17.9h15.1v16.7l-0.6 0.8h-13.8l-0.7-0.8z"/>
  <path class="cls-3" d="m139.9 20.3h1.8v12h-1.8z"/>
  <path class="cls-3" d="m144 20h2.4v12.3h-2.4z"/>
  <path class="cls-3" d="m148.6 20h1.9v12.3h-1.9z"/>
  <path class="cls-2" d="m140.6 21.1h0.5v10.4h-0.5z"/>
  <path class="cls-2" d="m144.7 20.6h0.9v11.4h-0.9z"/>
  <path class="cls-2" d="m149.3 20.6h0.6v11.2h-0.6z"/>
  <path class="cls-2" d="m138.4 34.2h13.3l-0.6 0.7h-12.2z"/>
  <linearGradient id="SVGID_5_" x1="163.2" x2="192.4" y1="22.75" y2="22.75" gradientUnits="userSpaceOnUse">
    <stop stop-color="#999" offset="0"/>
    <stop stop-color="#666" offset="1"/>
  </linearGradient>
  <path class="cls-8" d="m163.2 21.6 12.9-12h1.6v9.8h5c4.9 0 9.7 4.5 9.7 10.6l-0.2 3.5h-1.4c-0.7-5.1-4.2-7.9-7.8-7.9h-5.3v10.1l-1.6 0.2-12.9-11.5v-2.8z"/>
  <linearGradient id="SVGID_6_" x1="177.7" x2="177.7" y1="34.17" y2="10.67" gradientUnits="userSpaceOnUse">
    <stop stop-color="#999" offset="0"/>
    <stop stop-color="#B3B3B3" offset="1"/>
  </linearGradient>
  <path class="cls-9" d="m163.9 22.1 12.2-10.7v9.2h6.3c3.7 0 8.9 3.5 9.1 11.5-1-4.1-3.6-7.4-8.3-7.5h-7.1v9.6l-12.2-10.8v-1.3z"/>
  <linearGradient id="SVGID_7_" x1="205.3" x2="222.6" y1="36.37" y2="12.54" gradientUnits="userSpaceOnUse">
    <stop stop-color="#999" offset="0"/>
    <stop stop-color="#666" offset="1"/>
  </linearGradient>
  <path class="cls-10" d="m198.2 34.4-0.1-4.7c0.6-5.1 4.8-9.9 10.5-9.9h4.1v-10.2l1.8-0.3 13 12.3 0.1 3.1-12.5 11.9-2.2-0.3v-9.9h-5.3c-2.7 0-6.8 2-7.7 8h-1.7z"/>
  <linearGradient id="SVGID_8_" x1="209.1" x2="222" y1="35.04" y2="14.54" gradientUnits="userSpaceOnUse">
    <stop stop-color="#999" offset="0"/>
    <stop stop-color="#B3B3B3" offset="1"/>
  </linearGradient>
  <path class="cls-11" d="m199.1 33.7c0-6.3 3.8-9.1 8.4-9.3h7v10.7l12.2-11.2v-1.5l-12.2-11.7v9.9h-6.5c-3.9 0-8.8 3.5-8.9 9.1v4z"/>
  <linearGradient id="SVGID_9_" x1="231.8" x2="244" y1="13.96" y2="31.05" gradientUnits="userSpaceOnUse">
    <stop stop-color="#999" offset="0"/>
    <stop stop-color="#B3B3B3" offset="1"/>
  </linearGradient>
  <path class="cls-12" d="m235.1 34.2c-1.5-0.2-1.4-2.8 0-2.8h6.3c0.5 1.8-0.5 2.8-1.3 2.8h-5zm0-4.2c-0.7 0.1 0-2-1.9-4.2-6.2-7.2 0-14.4 5.3-14.2 4.9 0.1 9.9 7 5.1 13.5-1.2 1.3-1.5 2.4-1.5 4.9h-7z"/>
  <path class="cls-3" d="m235.9 29.2c0.1-4.1-3.4-4.6-3.4-9.2 0-3.6 3-7.2 5.7-7-3.3-0.7-5.7 2.8-6 6.8-0.1 4.8 3.3 4.9 2.9 9.4h0.8z"/>
  <path class="cls-2" d="m235.9 32h4.6l-0.3 0.9h-4z"/>
  <path class="cls-1" d="m254.2 20.6h4.3v2l-1.8 3.2z"/>
  <text class="cls-13 cls-14" transform="translate(10.43 2.75)">copy</text>
  <text class="cls-13 cls-14" transform="translate(9.682 5.417)">54x62</text>
  <text class="cls-13 cls-14" transform="translate(40.36 2.75)">clipboard</text>
  <text class="cls-13 cls-14" transform="translate(41.86 5.417)">44x63</text>
  <text class="cls-13 cls-14" transform="translate(75.9 2.75)">hand</text>
  <text class="cls-13 cls-14" transform="translate(75.27 5.417)">50x61</text>
  <text class="cls-13 cls-14" transform="translate(109.1 2.75)">brush</text>
  <text class="cls-13 cls-14" transform="translate(109.1 5.417)">39x63</text>
  <text class="cls-13 cls-14" transform="translate(141.8 2.75)">trash</text>
  <text class="cls-13 cls-14" transform="translate(141.6 5.417)">40x62</text>
  <text class="cls-13 cls-14" transform="translate(175.8 4.167)">undo</text>
  <text class="cls-13 cls-14" transform="translate(175.4 6.833)">41x41</text>
  <text class="cls-13 cls-14" transform="translate(209.1 4.167)">redo</text>
  <text class="cls-13 cls-14" transform="translate(208.3 6.833)">40x40</text>
  <text class="cls-13 cls-14" transform="translate(240.3 5.667)">lightbulb</text>
  <text class="cls-13 cls-14" transform="translate(241.6 8.333)">75x67</text>
  <text class="cls-13 cls-14" transform="translate(8.564 43.08)">selection</text>
  <text class="cls-13 cls-14" transform="translate(9.898 45.75)">62x73</text>
  <text class="cls-13 cls-14" transform="translate(42.23 43.08)">group</text>
  <text class="cls-13 cls-14" transform="translate(41.81 45.58)">55x62</text>
  <text class="cls-13 cls-14" transform="translate(75.73 43.08)">burst</text>
  <text class="cls-13 cls-14" transform="translate(75.31 45.58)">49x62</text>
  <text class="cls-13 cls-14" transform="translate(109.6 43.08)">align</text>
  <text class="cls-13 cls-14" transform="translate(108.7 45.58)">47x53</text>
  <text class="cls-13 cls-14" transform="translate(141.1 43.08)">shapes</text>
  <text class="cls-13 cls-14" transform="translate(141.6 45.58)">44x53</text>
  <text class="cls-13 cls-14" transform="translate(174.5 43.08)">magnet</text>
  <text class="cls-13 cls-14" transform="translate(175.3 45.58)">40x63</text>
  <text class="cls-13 cls-14" transform="translate(208.2 43.33)">eraser</text>
  <text class="cls-13 cls-14" transform="translate(208.2 45.58)">48x59</text>
  <text class="cls-13 cls-14" transform="translate(239.7 43.25)">download</text>
  <text class="cls-13 cls-14" transform="translate(241.6 45.58)">46x56</text>
  <path class="cls-1" d="m1.6 49.7h2.9v3.4h-2.9v-3.4zm4.5 0.9h13.5v1.5h-13.5v-1.5zm15.3-1h2.8v3.5h-2.8v-3.5zm-19.3 5h1.5v16.5h-1.5v-16.5zm20.3 0h1.5v16.5h-1.5v-16.5zm-1 17.5h3v3.5h-3v-3.5zm-15.5 1.3h14v1.5h-14v-1.5zm-4.2-1.3h2.9v3.5h-2.9v-3.5z"/>
  <path class="cls-2" d="m2.2 50.4h1.7v2h-1.7z"/>
  <path class="cls-2" d="m22.2 50.2h1.4v2.2h-1.4z"/>
  <path class="cls-2" d="m2.2 72.9h1.8v2h-1.8z"/>
  <path class="cls-2" d="m22.1 72.7h1.6v2.2h-1.6z"/>
  <path class="cls-1" d="m32.6 50.5v18.2h7.3c2 8.7 14.8 10 18.5 0.8 2-7.1-2.5-12.6-8.3-13.1v-6l-17.5 0.1z"/>
  <path class="cls-3" d="m33.4 50.9h15.8v5.7c-4.1 0.3-9.1 3.3-9.6 10.3h-6.2v-16z"/>
  <path class="cls-2" d="m34.4 52.1h13.5v4.5c-3 0.3-7.3 3-7.9 9.8h-5.6v-14.3z"/>
  <path class="cls-3" d="m35.1 53h12.5v3.6c-2.5-0.2-6.6 2.8-7.5 9.4h-5v-13z"/>
  <path class="cls-2" d="m41.6 66.4c0-3.7 3.1-7.8 7.4-8.3 5.6 0 8.9 4.3 8.5 8.8-1 9.6-15.9 11.8-15.9-0.5z"/>
  <path class="cls-3" d="m42 67.1c-0.5-4 2.7-8 7.2-8.4-3.6 0.9-7.1 4-7.2 8.4z"/>
  <path class="cls-1" d="m67.9 49.9h9.7l0.3 0.5v11.2l-0.8 0.8h-9.2l-0.3-0.4v-11.6z"/>
  <path class="cls-2" d="m68.5 50.6h8.5v10.3l-0.4 0.5h-8.1l-0.4-0.5z"/>
  <path class="cls-3" d="m69.1 51.4h7l0.3 0.2v8.8l-0.3 0.2h-7l-0.2-0.2v-8.8z"/>
  <path class="cls-1" d="m66.6 65.6 5.3-1.5 0.7 1.3-5.4 1.7z"/>
  <path class="cls-1" d="m70 72.9-0.9-1.3 3.3-3.2 1.3 1z"/>
  <path class="cls-1" d="m75 75.7-0.5-0.7 0.6-3.4 1.8-0.2-0.5 4.2z"/>
  <path class="cls-1" d="m85.6 57.6-2-1 3-3.5h1l0.3 1z"/>
  <path class="cls-1" d="m85.4 60 0.7 1.7 4.8-1.1v-1.6l-0.9-0.1z"/>
  <path class="cls-1" d="m84.2 63.6c-7.1 0.8-8.6 10.4-1.2 12.1 8.9 0.8 10-12.1 1.2-12.1z"/>
  <path class="cls-2" d="m84.5 64.9c-5.6 0.2-6.9 8.2-0.4 9.1 6.4 0 6.5-8.9 0.4-9.1z"/>
  <path class="cls-1" d="m80.6 49.6 1.5 0.5-1 5h-1.7z"/>
  <path class="cls-2" d="m5.4 54.9h7.8l1 2.2v3.5c-2 0.8-2.6 2.4-3.1 4.5h-4.9l-0.7-0.1-0.5-0.6v-9l0.4-0.5z"/>
  <path class="cls-3" d="m6.2 55.9h6.8l0.6 1.2 0.1 3.3c-1.3 0.7-2.3 2-2.7 3.7h-4.6l-0.4-0.1-0.3-0.4v-7.2l0.5-0.5z"/>
  <path class="cls-2" d="m6.4 56.6h6.2l0.5 1 0.1 2.5c-1.2 0.8-2.3 2-2.6 3.5h-4.1l-0.3-0.2-0.2-0.3v-6.1l0.4-0.4z"/>
  <path class="cls-1" d="m15.4 60c-4.5 0.7-7.3 9.4-0.3 11.6 7.8 0.8 8.8-11.5 0.3-11.6z"/>
  <path class="cls-3" d="m15.9 61.4c-4.4 0.5-5.8 7.6 0 9 5.6 0 6.7-8.5 0-9z"/>
  <path class="cls-1" d="m100.1 48.1 1.8-0.2 0.6 0.5v28.7l-1.4 0.8-1-0.5z"/>
  <path class="cls-2" d="m100.9 48.4h0.7l0.3 28.2-1 0.3z"/>
  <path class="cls-1" d="m104.6 64.4 0.5-0.5h18.5l0.8 0.7v9.4l-0.9 0.6h-18.1l-0.8-0.5z"/>
  <path class="cls-2" d="m105.5 64.9h18v8.7h-18z"/>
  <path class="cls-3" d="m106.4 65.6h16.2l0.3 0.3v6.7l-0.3 0.3h-16.2l-0.3-0.3v-6.7z"/>
  <path class="cls-1" d="m104.6 51.9 0.9-1.2h13l0.6 0.7v9.2l-0.6 1h-13.1l-0.8-0.7z"/>
  <path class="cls-2" d="m105.5 51.9h12.6v8.7h-12.6z"/>
  <path class="cls-3" d="m106.4 52.6h11l0.2 0.4v6.6l-0.2 0.4h-11l-0.3-0.4v-6.6z"/>
  <path class="cls-0" d="m106.9 53.4h9.8v6h-9.8z"/>
  <path class="cls-1" d="m142.6 47.6h0.9v27l-0.4 0.3h-11.1l-0.6-1.9z"/>
  <path class="cls-3" d="m142.1 50v23.6h-9.5z"/>
  <path class="cls-0" d="m141.1 55.4v17.2h-7.5z"/>
  <path class="cls-1" d="m146.1 47.6h1l11.5 26-0.5 1.1h-11.6l-0.1-0.6z"/>
  <path class="cls-2" d="m147.1 49.6 10.4 24h-10.1z"/>
  <path class="cls-1" d="m172.9 69-2.8-10.3c0-6.7 7.5-12 13.5-7.3 1.8 1.2 3.1 7.7 4.5 13.2 0.5 1.8-2.9 2.5-4.1 2.3-1.4 0-2.6-9.5-4-10.8-1.5-1.5-4.4-0.5-3.6 3l2 8.3-0.5 1.6-3.5 1-1.5-1z"/>
  <path class="cls-3" d="m173.5 68.4-2.6-9.7c-0.3-6.3 6.6-11.1 12.2-6.7 1.5 1 2.4 5.6 3.8 11.9l-2.7 1.2-2.2-7.7c-1.5-4.8-7.4-3.3-6.4 1.7l1.8 8.5-3.9 0.8z"/>
  <path class="cls-2" d="m174.1 67.9 1.8-0.5-0.4-2.3h-1.9z"/>
  <path class="cls-2" d="m184.1 63.4 0.5 2 1.6-0.3-0.5-2.4z"/>
  <path class="cls-2" d="m172.6 58.7c-0.5-4.8 3-7.3 5.8-7.8-3.3-0.2-6.7 3.1-5.8 7.8z"/>
  <path class="cls-1" d="m168.6 72 1.8 0.6 0.1 1.4-1.8-0.1z"/>
  <path class="cls-1" d="m171.1 74 2.4 0.4-0.1 1.3-1.9-0.1z"/>
  <path class="cls-1" d="m174.9 74 2-0.6 0.6 1.2-2.1 1z"/>
  <path class="cls-1" d="m177.7 72.6 2.2-1.2 1.2 1-1 1.2-1.9 0.4z"/>
  <path class="cls-1" d="m181.9 70.9 0.7 1.5 2.3-0.5-0.3-1.5z"/>
  <path class="cls-1" d="m186.1 70.9 0.5 1.5 2 0.7 0.1-2c-0.6-0.4-1.2-0.6-2.6-0.2z"/>
  <path class="cls-1" d="m200.1 65.6 3.5-2.5-3-5.2-0.2-1.9 8.3-6 2.8-0.4 3.9 6.4 2.7-1.4 7.8 6.8v2.6l-20.9 12.1h-2.5z"/>
  <path class="cls-3" d="m201.1 66 3-2 2.9 4.4 10.9-5.8-2.3-4.6 2.8-1.6 6.6 5.3-21.4 13.2z"/>
  <path class="cls-0" d="m202.4 66.4 2.2-1.4 0.5 0.6-2.5 1.4z"/>
  <path class="cls-2" d="m203.1 66.7 2.5-1.3 1.5 3.3 5.5-2.7-0.5-1.4 4.8-2.5-2.3-4 3.3-1.1 6.1 5.4-20.1 11.7z"/>
  <path class="cls-0" d="m216.1 56.6 1.3-0.6 0.5 0.6-1.5 0.5z"/>
  <path class="cls-0" d="m213.5 64.6 0.6 1.5 0.5-0.2-0.5-1.8z"/>
  <path class="cls-0" d="m201.5 56.6 8.1-5.2 7 10.6-9.2 5.1z"/>
  <path class="cls-1" d="m234.1 62.4h2.4v-5.3l1.1-1.1h3l2.1 2.6h1.7l2.7-2.7h2.5l1.9 1.1v5.4h2l2.4 10.6-1.4 2h-20.5-0.4l-0.4 0.1-0.2-0.1h0.1 0.5-0.2-0.3-0.1 0.6l-0.5 0.1-0.1-0.1v0.1l0.6-0.1-0.6 0.1-0.9-1.1v-2zm1.4 6 0.1 0.5h2.5l-0.1 2.7h1.5v-2h3.9v2h1.7l-0.1-2h3.5l0.1 2 1.3-0.2v-1.8l2-0.6v-0.6h1.7l0.4 4h-19.1l0.6-4z"/>
  <path class="cls-3" d="m235.6 64h1.5v3.6h-1.2l0.2 0.8h16.4v-0.8h-1v-3.6h1.6l1.5 8.9-0.6 0.7h-19.5l-0.6-0.6z"/>
  <path class="cls-2" d="m235.5 68.4h1.6v0.7l13.5-0.1v-0.6h3l0.4 4-19-0.3z"/>
  <path class="cls-2" d="m238.9 57.1 2.5 2.3h4.2l2.6-2.4 1.9 0.6 0.3 11.3h-12.2v-11.5z"/>
  <path class="cls-3" d="m239.6 58 2 1.9h4l2-2.3 1.9 0.5 0.1 9.8-10.6 0.2z"/>
  <path class="cls-1" d="m240.4 50.2 1.5 1.4h1.7v-4.9h1.9v4.9l1.9-1.5 1.5 0.5-4.4 5.3h-0.9l-3.5-3.5 0.3-2.2z"/>
  <path class="cls-2" d="m241.4 51.4 1.1 1.2 2.6-0.2 2-1.3-3 3.5h-0.5z"/>
</svg>
