<svg xmlns="http://www.w3.org/2000/svg" viewBox="0 0 165 27">
<!-- SVG created with Arrow, by QuiverAI (https://quiver.ai) -->
  <style type="text/css">.cls-0 {fill:#C1C8CD;}
.cls-1 {fill:none;stroke:#555E65;stroke-width:1.4;stroke-linecap:round;stroke-linejoin:round;}
.cls-2 {fill:#D4D7D9;}
.cls-3 {fill:#BDC4C9;}
.cls-4 {fill:none;stroke:#555E65;stroke-width:1.4;stroke-linejoin:round;}
.cls-5 {fill:#DEDEDE;}
.cls-6 {fill:#ABB2B7;}
.cls-7 {fill:none;stroke:#555E65;stroke-width:1.4;stroke-linecap:round;stroke-miterlimit:10;}
.cls-8 {fill:none;stroke:#555E65;stroke-width:1.4;stroke-miterlimit:10;}
.cls-9 {fill:#FFFFFF;stroke:#555E65;stroke-width:1.4;stroke-linecap:round;stroke-linejoin:round;}
.cls-10 {fill:#C2C9CE;}
.cls-11 {fill:none;stroke:#555E65;stroke-width:1.4;stroke-linecap:round;}</style>
  <path class="cls-0" d="m18 13.5c-0.5 0-1 0.5-1 1v2.5c0 0.8-0.6 1.5-1.4 1.5h-7.9c-0.7 0-1.3-0.6-1.3-1.4v-2.6c0-0.5-0.5-1-1-1h-2.9c-0.5 0-0.9 0.4-0.9 0.9v8.4c0 1.1 0.9 2 2 2h16.5c1.1 0 2.2-0.8 2.2-1.9v-8.5c0-0.5-0.4-0.9-0.9-0.9h-3.4z"/>
  <path class="cls-1" d="m18 13.5c-0.5 0-1 0.5-1 1v2.5c0 0.8-0.6 1.5-1.4 1.5h-7.9c-0.7 0-1.3-0.6-1.3-1.4v-2.6c0-0.5-0.5-1-1-1h-2.9c-0.5 0-0.9 0.4-0.9 0.9v8.4c0 1.1 0.9 2 2 2h16.5c1.1 0 2.2-0.8 2.2-1.9v-8.5c0-0.5-0.4-0.9-0.9-0.9h-3.4z"/>
  <polyline class="cls-1" points="7.7 9.2 11.5 13.3 15.6 9.2"/>
  <line class="cls-1" x1="11.5" x2="11.5" y1="12.6" y2=".8"/>
  <path class="cls-0" d="m53.4 13.5c-0.5 0-1 0.5-1 1v2.5c0 0.8-0.6 1.5-1.4 1.5h-8.6c-0.7 0-1.3-0.6-1.3-1.3v-2.7c0-0.5-0.5-1-1-1h-3.5c-0.5 0-1 0.4-1 0.9v8.3c0 1.1 0.9 2.1 2.1 2.1h17.9c1.1 0 2.1-0.8 2.1-1.9v-8.5c0-0.5-0.4-0.9-0.9-0.9h-3.4z"/>
  <path class="cls-1" d="m53.4 13.5c-0.5 0-1 0.5-1 1v2.5c0 0.8-0.6 1.5-1.4 1.5h-8.6c-0.7 0-1.3-0.6-1.3-1.3v-2.7c0-0.5-0.5-1-1-1h-3.5c-0.5 0-1 0.4-1 0.9v8.3c0 1.1 0.9 2.1 2.1 2.1h17.9c1.1 0 2.1-0.8 2.1-1.9v-8.5c0-0.5-0.4-0.9-0.9-0.9h-3.4z"/>
  <polyline class="cls-1" points="42.5 4.7 46.6 0.8 50.7 4.7"/>
  <line class="cls-1" x1="46.6" x2="46.6" y1="13.4" y2="1.5"/>
  <path class="cls-2" d="m105.9 6.6 10.1-5.1 10.3 4.9 0.1 9.8-10.3 8.6-10.2-4.6v-13.6z"/>
  <path class="cls-3" d="m116.2 11.6 10.1-5.2 0.1 9.8-10.1 8.6-0.1-13.2z"/>
  <path class="cls-4" d="m105.9 6.5v13.6l10.2 4.8 3.5-1.6"/>
  <path class="cls-4" d="m116.2 11.6 10.1-5.2v9.7"/>
  <path class="cls-4" d="m105.9 6.4 10.2-4.9 10.2 4.9-10.1 5.2-10.3-5.2z"/>
  <path class="cls-4" d="m116.2 11.6v13"/>
  <circle class="cls-2" cx="124.3" cy="21.2" r="4.9"/>
  <path class="cls-8" d="m126.6 16.3c-2.7-0.8-7.4 0.8-7.5 4.8 0 3.4 3 5.5 5.3 5.2 5.2 0 7-6.3 2.2-10z"/>
  <line class="cls-7" x1="124.3" x2="124.3" y1="18.7" y2="23.5"/>
  <line class="cls-7" x1="122.1" x2="126.6" y1="21.1" y2="21.1"/>
  <path class="cls-5" d="m148.2 5.9c-3.3 0.7-6.9 3.3-8.6 6.1-0.5 0.8-0.7 2.4-0.2 3.1 1.5 2.1 3.9 4.6 6.4 5.9 2.6 1.4 6.3 1.5 8.9 0.5 2.8-1.1 6.2-3.2 8.4-6.5 0.2-0.4 0.3-1.7 0-2.1-2.8-3.2-7.6-8.1-14.9-7z"/>
  <path class="cls-6" d="m155.5 13.9c0 2.2-1.7 4.5-4 4.5-2.2 0-3.9-2.3-3.9-4.5s1.7-4 3.9-4 4 1.8 4 4z"/>
  <path class="cls-1" d="m160.2 9.1c1.2 1 2.2 2.1 3 3.2 0.6 0.7 0.6 1.8 0 2.6-2.4 3.3-7.1 7.3-11.6 7.4-1.5 0.1-2.9-0.1-3.6-0.4l0.3 0.1h-0.1l-0.8-0.3"/>
  <path class="cls-1" d="m146.1 20.8c-2.4-1.2-4.8-3.4-6.5-5.6-0.5-0.7-0.5-1.8 0.1-2.5 2.4-2.8 6.3-6.5 11.2-7 2.7-0.2 5.2 0.7 7.3 2.1"/>
  <path class="cls-1" d="m155.4 12.9c0.1 0.4 0.1 0.8 0.1 1.2-0.1 2.3-1.9 4.2-4.1 4.2-0.3 0-0.6 0-0.8-0.1"/>
  <path class="cls-1" d="m149.3 17.6c-1.3-0.6-1.9-1.9-1.8-4 0.1-1.9 1.8-4 4.1-4 1.4 0 2.7 0.7 3.4 1.8"/>
  <line class="cls-11" x1="142.6" x2="162.5" y1="24.7" y2="3.9"/>
  <path class="cls-10" d="m93.4 12.3-2.5-0.7c-0.2-0.7-0.5-1.5-0.9-2.2l0.9-2.1c0.1-0.3 0.1-0.6-0.1-0.8l-1.6-1.6c-0.2-0.2-0.5-0.3-0.8-0.1l-2 1c-0.7-0.4-1.4-0.7-2.3-1l-0.6-2.4c-0.1-0.3-0.3-0.5-0.6-0.5h-2.5c-0.3 0-0.6 0.2-0.6 0.5l-0.7 2.2c-0.8 0.3-1.6 0.6-2.4 1l-2.1-1c-0.2-0.1-0.5-0.1-0.7 0.1l-1.6 1.6c-0.2 0.2-0.3 0.5-0.1 0.8l1 2.1c-0.4 0.7-0.7 1.4-0.9 2.2l-2.4 0.8c-0.3 0.1-0.5 0.3-0.5 0.6v2.4c0 0.3 0.2 0.6 0.5 0.6l2.5 0.8c0.2 0.7 0.5 1.5 0.9 2.2l-1 2.1c-0.1 0.3-0.1 0.6 0.1 0.8l1.6 1.6c0.2 0.2 0.5 0.2 0.8 0.1l2-1.1c0.7 0.4 1.5 0.7 2.3 1l0.6 2.4c0.1 0.3 0.3 0.5 0.6 0.5h2.5c0.3 0 0.6-0.2 0.6-0.5l0.6-2.3c0.8-0.3 1.6-0.6 2.4-1l2.1 1c0.2 0.1 0.5 0.1 0.7-0.1l1.6-1.6c0.2-0.2 0.3-0.5 0.1-0.8l-1-2.1c0.4-0.7 0.7-1.4 0.9-2.2l2.4-0.8c0.3-0.1 0.5-0.3 0.5-0.6v-2.4c0.1-0.2-0.1-0.4-0.3-0.5zm-11.9 6c-2.2 0-4.2-1.7-4.3-4s1.7-4.5 4.1-4.7c2.3-0.1 4.5 1.6 4.6 4s-1.9 4.7-4.4 4.7z"/>
  <path class="cls-8" d="m93.3 12.3-2.5-0.8c-0.2-0.8-0.5-1.6-0.9-2.3l0.9-2.1c0.1-0.2 0.1-0.5-0.1-0.7l-1.5-1.7c-0.2-0.2-0.5-0.2-0.7-0.1l-2 1c-0.7-0.4-1.5-0.7-2.5-1l-0.6-2.6c-0.1-0.2-0.3-0.3-0.5-0.3h-2.6c-0.3 0-0.5 0.1-0.6 0.4l-0.6 2.4c-0.8 0.2-1.6 0.6-2.5 1l-2.1-1c-0.2-0.1-0.5-0.1-0.7 0.1l-1.6 1.6c-0.2 0.2-0.2 0.5 0 0.8l1 2.1c-0.4 0.7-0.7 1.4-0.9 2.2l-2.6 0.9c-0.2 0.1-0.3 0.3-0.3 0.5v2.6c0 0.3 0.1 0.5 0.4 0.5l2.5 0.8c0.2 0.8 0.5 1.6 0.9 2.3l-1 2.2c-0.1 0.2-0.1 0.5 0.1 0.7l1.5 1.5c0.2 0.2 0.5 0.3 0.7 0.1l2.1-1.1c0.7 0.4 1.5 0.7 2.4 1l0.6 2.6c0.1 0.2 0.3 0.3 0.5 0.3h2.7c0.2 0 0.5-0.1 0.6-0.4l0.6-2.4c0.8-0.3 1.6-0.6 2.4-1l2.1 1.1c0.2 0.1 0.5 0.1 0.7-0.1l1.6-1.6c0.2-0.2 0.2-0.5 0.1-0.7l-1-2.2c0.4-0.7 0.7-1.5 0.9-2.3l2.5-0.8c0.2-0.1 0.3-0.3 0.3-0.5v-2.6c0-0.1-0.1-0.3-0.3-0.4zm-11.8 6c-2.3 0-4.3-1.8-4.4-4.1-0.2-2.3 1.8-4.6 4.3-4.6 2.3 0 4.3 1.8 4.3 4.1 0 2.4-1.8 4.6-4.2 4.6z"/>
</svg>