<svg xmlns="http://www.w3.org/2000/svg" viewBox="0 0 64 64" fill="none" stroke="currentColor" stroke-width="2.5" stroke-linecap="round" stroke-linejoin="round" aria-hidden="true">
  <title>Gear</title>
  <g>
    <rect x="29" y="4" width="6" height="11" rx="1"/>
    <g transform="rotate(45 32 32)"><rect x="29" y="4" width="6" height="11" rx="1"/></g>
    <g transform="rotate(90 32 32)"><rect x="29" y="4" width="6" height="11" rx="1"/></g>
    <g transform="rotate(135 32 32)"><rect x="29" y="4" width="6" height="11" rx="1"/></g>
    <g transform="rotate(180 32 32)"><rect x="29" y="4" width="6" height="11" rx="1"/></g>
    <g transform="rotate(225 32 32)"><rect x="29" y="4" width="6" height="11" rx="1"/></g>
    <g transform="rotate(270 32 32)"><rect x="29" y="4" width="6" height="11" rx="1"/></g>
    <g transform="rotate(315 32 32)"><rect x="29" y="4" width="6" height="11" rx="1"/></g>
  </g>
  <circle cx="32" cy="32" r="14"/>
  <circle cx="32" cy="32" r="5"/>
</svg>
